<svg xmlns="http://www.w3.org/2000/svg" viewBox="0 0 960 960" fill="currentColor" style="fill:var(--icon-color, currentColor)"><path d="M268 716 440 544Q440 544 440.0 544.0Q440 544 440 544V275L365 350Q353 362 337.0 362.0Q321 362 309 350Q297 338 297.0 321.5Q297 305 309 293L452 149Q458 143 465.0 140.5Q472 138 480.0 138.0Q488 138 495.0 140.5Q502 143 508 149L653 294Q665 306 665.0 322.0Q665 338 653.0 350.0Q641 362 624.5 362.0Q608 362 596 350L520 275V543Q520 559 514.0 573.5Q508 588 497 599L324 772Q313 783 296.0 783.0Q279 783 268.0 772.0Q257 761 257.0 744.0Q257 727 268 716ZM692 773Q681 784 664.0 784.0Q647 784 636 773L564 702Q552 690 552.0 674.0Q552 658 564 646Q576 634 592.5 634.0Q609 634 621 646L692 717Q703 728 703.5 744.5Q704 761 692 773Z"/></svg>
