<svg xmlns="http://www.w3.org/2000/svg" viewBox="0 0 960 960" fill="currentColor" style="fill:var(--icon-color, currentColor)"><path d="M360.0 613.9232788085938 493.92327880859375 480.0 360.0 346.07672119140625 226.07672119140625 480.0ZM337.38458251953125 648.1543579101562 191.84564208984375 502.61541748046875Q182.1533203125 492.923095703125 182.1533203125 480.0Q182.1533203125 467.076904296875 191.84564208984375 457.38458251953125L337.38458251953125 311.84564208984375Q347.076904296875 302.1533203125 360.0 302.1533203125Q372.923095703125 302.1533203125 382.61541748046875 311.84564208984375L530.7696533203125 459.9998779296875H816.9232177734375Q825.4617309570312 459.9998779296875 831.1925354003906 465.7306823730469Q836.92333984375 471.46148681640625 836.92333984375 480.0Q836.92333984375 488.53851318359375 831.1925354003906 494.2693176269531Q825.4617309570312 500.0001220703125 816.9232177734375 500.0001220703125H530.7696533203125L382.61541748046875 648.1543579101562Q372.923095703125 657.8466796875 360.0 657.8466796875Q347.076904296875 657.8466796875 337.38458251953125 648.1543579101562ZM360 480Z"/></svg>
