<svg xmlns="http://www.w3.org/2000/svg" viewBox="0 0 960 960" fill="currentColor" style="fill:var(--icon-color, currentColor)"><path d="M532.307861328125 756.92333984375Q532.307861328125 733.442512512207 548.8848266601562 716.7213172912598Q565.4617919921875 700.0001220703125 589.2310791015625 700.0001220703125Q613.0003662109375 700.0001220703125 629.5773315429688 716.7213172912598Q646.154296875 733.442512512207 646.154296875 756.92333984375Q646.154296875 780.404167175293 629.5773315429688 797.1253623962402Q613.0003662109375 813.8465576171875 589.2310791015625 813.8465576171875Q565.4617919921875 813.8465576171875 548.8848266601562 797.1253623962402Q532.307861328125 780.404167175293 532.307861328125 756.92333984375ZM278.4613037109375 813.8465576171875Q255.46124267578125 813.8465576171875 238.49966430664062 797.1253623962402Q221.5380859375 780.404167175293 221.5380859375 756.92333984375Q221.5380859375 733.442512512207 238.49966430664062 716.7213172912598Q255.46124267578125 700.0001220703125 278.4613037109375 700.0001220703125Q302.99981689453125 700.0001220703125 319.1921691894531 716.7213172912598Q335.384521484375 733.442512512207 335.384521484375 756.92333984375Q335.384521484375 780.404167175293 319.1921691894531 797.1253623962402Q302.99981689453125 813.8465576171875 278.4613037109375 813.8465576171875ZM341.69256591796875 619.9998779296875H541.538818359375Q552.3079833984375 619.9998779296875 559.2310180664062 613.0768432617188Q566.154052734375 606.15380859375 566.154052734375 595.3846435546875V356.99993896484375ZM297.0 660.0001220703125Q284.19140884724067 660.0001220703125 279.01870857401093 648.5385131835938Q273.84600830078125 637.076904296875 282.384521484375 627.0768432617188L629.53857421875 220.07659912109375Q647.2308959960938 199.38427734375 667.1155395507812 189.69195556640625Q687.0001831054688 179.9996337890625 711.3848266601562 179.9996337890625Q746.61572265625 179.9996337890625 770.6158142089844 203.99972534179688Q794.6159057617188 227.99981689453125 794.6159057617188 263.5950831363076V264.230712890625Q794.6159057617188 272.7307647705078 788.8581109297903 278.48079986572264Q783.1003160978619 284.2308349609375 774.5887933028372 284.2308349609375Q766.0772705078125 284.2308349609375 760.3464660644531 278.48079986572264Q754.6156616210938 272.7307647705078 754.6156616210938 264.230712890625V263.42651589133527Q754.6156616210938 244.92998490767047 742.206810845269 232.464931418679Q729.7979600694445 219.9998779296875 711.3848266601562 219.9998779296875Q696.1540832519531 219.9998779296875 684.3848724365234 225.92294311523438Q672.6156616210938 231.84600830078125 662.5387573242188 242.92291259765625L606.154296875 308.69195556640625V595.1450155368026Q606.154296875 622.2308349609375 587.1852995471606 641.115478515625Q568.2163022193212 660.0001220703125 541.5789868227807 660.0001220703125ZM409.38446044921875 386.30767822265625 278.69195556640625 255.61517333984375Q268.76885986328125 245.69207763671875 270.78809356689453 232.6455418786337Q272.8073272705078 219.59900612054867 284.9227294921875 212.6920166015625Q316.46124267578125 196.8458251953125 349.9613037109375 188.4227294921875Q383.46136474609375 179.9996337890625 420.76910400390625 179.9996337890625Q456.53839111328125 179.9996337890625 490.4230651855469 187.15350341796875Q524.3077392578125 194.307373046875 560.4616088867188 209.38433837890625ZM454.30792236328125 488.384521484375Q454.30792236328125 488.384521484375 454.30792236328125 488.384521484375Q454.30792236328125 488.384521484375 454.30792236328125 488.384521484375ZM406.692138671875 327.5380859375 490.15350341796875 229.692138671875Q472.92279052734375 224.84600830078125 455.4613037109375 222.42294311523438Q437.99981689453125 219.9998779296875 420.76910400390625 219.9998779296875Q394.61529541015625 219.9998779296875 369.5768737792969 224.92294311523438Q344.5384521484375 229.84600830078125 320.15386962890625 240.2305908203125ZM406.692138671875 327.5380859375Q406.692138671875 327.5380859375 406.692138671875 327.5380859375Q406.692138671875 327.5380859375 406.692138671875 327.5380859375Q406.692138671875 327.5380859375 406.692138671875 327.5380859375Q406.692138671875 327.5380859375 406.692138671875 327.5380859375Z"/></svg>
